<svg width="1200" height="320" viewBox="0 0 1200 320" fill="none" xmlns="http://www.w3.org/2000/svg" role="img" aria-label="Entropy Database Engine">
  <defs>
    <radialGradient id="core-light" cx="50%" cy="50%" r="50%">
      <stop offset="0%" stop-color="#0f0f0f" stop-opacity="0.9" />
      <stop offset="60%" stop-color="#9ca3af" stop-opacity="0.35" />
      <stop offset="100%" stop-color="#9ca3af" stop-opacity="0" />
    </radialGradient>
  </defs>
  <g>
    <circle cx="210" cy="160" r="58" fill="url(#core-light)" />
    <circle cx="210" cy="160" r="18" fill="#0f0f0f" opacity="0.92" />
    <circle cx="217.0" cy="160.0" r="2.79" fill="#161616" opacity="0.86" />
    <circle cx="214.6" cy="164.9" r="3.83" fill="#181818" opacity="0.85" />
    <circle cx="216.3" cy="164.9" r="3.13" fill="#1a1a1a" opacity="0.84" />
    <circle cx="218.1" cy="164.9" r="3.32" fill="#1c1c1c" opacity="0.84" />
    <circle cx="217.5" cy="166.8" r="3.66" fill="#1e1e1e" opacity="0.83" />
    <circle cx="212.3" cy="169.8" r="3.47" fill="#202020" opacity="0.82" />
    <circle cx="209.1" cy="171.6" r="3.98" fill="#222222" opacity="0.82" />
    <circle cx="204.0" cy="171.5" r="2.35" fill="#242424" opacity="0.81" />
    <circle cx="198.4" cy="170.7" r="2.18" fill="#262626" opacity="0.80" />
    <circle cx="198.1" cy="171.4" r="3.38" fill="#282828" opacity="0.80" />
    <circle cx="190.3" cy="166.7" r="3.19" fill="#2a2a2a" opacity="0.79" />
    <circle cx="187.7" cy="165.8" r="3.20" fill="#2c2c2c" opacity="0.78" />
    <circle cx="185.0" cy="162.5" r="3.87" fill="#2e2e2e" opacity="0.78" />
    <circle cx="183.2" cy="161.1" r="2.00" fill="#303030" opacity="0.77" />
    <circle cx="182.0" cy="164.5" r="2.07" fill="#323232" opacity="0.76" />
    <circle cx="179.8" cy="162.4" r="2.48" fill="#343434" opacity="0.76" />
    <circle cx="180.5" cy="152.0" r="2.66" fill="#363636" opacity="0.75" />
    <circle cx="178.3" cy="153.1" r="3.83" fill="#383838" opacity="0.74" />
    <circle cx="185.6" cy="142.3" r="2.20" fill="#3a3a3a" opacity="0.74" />
    <circle cx="187.8" cy="140.1" r="2.60" fill="#3d3d3d" opacity="0.73" />
    <circle cx="200.8" cy="134.0" r="2.94" fill="#3f3f3f" opacity="0.72" />
    <circle cx="202.9" cy="132.4" r="3.34" fill="#414141" opacity="0.72" />
    <circle cx="194.3" cy="133.4" r="2.41" fill="#434343" opacity="0.71" />
    <circle cx="203.3" cy="130.3" r="3.58" fill="#454545" opacity="0.70" />
    <circle cx="225.1" cy="130.5" r="3.00" fill="#474747" opacity="0.70" />
    <circle cx="227.5" cy="130.3" r="2.60" fill="#494949" opacity="0.69" />
    <circle cx="227.9" cy="128.7" r="2.76" fill="#4b4b4b" opacity="0.69" />
    <circle cx="238.5" cy="131.9" r="3.33" fill="#4d4d4d" opacity="0.68" />
    <circle cx="246.7" cy="134.7" r="3.46" fill="#4f4f4f" opacity="0.67" />
    <circle cx="254.8" cy="139.7" r="1.79" fill="#515151" opacity="0.67" />
    <circle cx="257.7" cy="142.2" r="3.03" fill="#535353" opacity="0.66" />
    <circle cx="264.3" cy="149.5" r="2.31" fill="#555555" opacity="0.65" />
    <circle cx="265.1" cy="171.4" r="3.24" fill="#575757" opacity="0.65" />
    <circle cx="266.1" cy="172.1" r="2.80" fill="#595959" opacity="0.64" />
    <circle cx="263.7" cy="179.8" r="2.06" fill="#5b5b5b" opacity="0.63" />
    <circle cx="262.0" cy="183.3" r="2.29" fill="#5d5d5d" opacity="0.63" />
    <circle cx="255.7" cy="192.1" r="2.92" fill="#5f5f5f" opacity="0.62" />
    <circle cx="255.6" cy="192.9" r="1.87" fill="#616161" opacity="0.61" />
    <circle cx="225.0" cy="206.0" r="2.02" fill="#636363" opacity="0.61" />
    <circle cx="224.8" cy="207.0" r="1.80" fill="#656565" opacity="0.60" />
    <circle cx="209.1" cy="209.2" r="2.62" fill="#676767" opacity="0.59" />
    <circle cx="209.0" cy="210.5" r="1.99" fill="#696969" opacity="0.59" />
    <circle cx="207.2" cy="211.5" r="2.68" fill="#6b6b6b" opacity="0.58" />
    <circle cx="170.5" cy="205.0" r="1.62" fill="#6d6d6d" opacity="0.57" />
    <circle cx="153.8" cy="195.9" r="1.64" fill="#6f6f6f" opacity="0.57" />
    <circle cx="158.9" cy="202.3" r="2.41" fill="#717171" opacity="0.56" />
    <circle cx="141.3" cy="189.4" r="2.05" fill="#737373" opacity="0.55" />
    <circle cx="136.7" cy="185.5" r="2.46" fill="#757575" opacity="0.55" />
    <circle cx="131.7" cy="180.4" r="2.06" fill="#777777" opacity="0.54" />
    <circle cx="125.2" cy="161.6" r="1.80" fill="#797979" opacity="0.53" />
    <circle cx="128.5" cy="139.7" r="1.90" fill="#7b7b7b" opacity="0.53" />
    <circle cx="124.2" cy="147.1" r="1.67" fill="#7d7d7d" opacity="0.52" />
    <circle cx="126.0" cy="138.0" r="1.65" fill="#7f7f7f" opacity="0.52" />
    <circle cx="127.0" cy="134.4" r="2.00" fill="#818181" opacity="0.51" />
    <circle cx="137.9" cy="118.3" r="2.17" fill="#838383" opacity="0.50" />
    <circle cx="139.1" cy="116.8" r="1.96" fill="#858585" opacity="0.50" />
    <circle cx="155.1" cy="105.3" r="2.15" fill="#878787" opacity="0.49" />
    <circle cx="188.2" cy="93.4" r="1.99" fill="#898989" opacity="0.48" />
    <circle cx="214.6" cy="90.6" r="1.44" fill="#8b8b8b" opacity="0.48" />
    <circle cx="215.5" cy="89.5" r="1.68" fill="#8d8d8d" opacity="0.47" />
    <circle cx="249.9" cy="94.1" r="2.01" fill="#8f8f8f" opacity="0.46" />
    <circle cx="234.7" cy="89.2" r="1.55" fill="#929292" opacity="0.46" />
    <circle cx="284.8" cy="107.3" r="1.43" fill="#949494" opacity="0.45" />
    <circle cx="284.7" cy="106.0" r="1.47" fill="#969696" opacity="0.44" />
    <circle cx="294.3" cy="112.5" r="1.53" fill="#989898" opacity="0.44" />
    <circle cx="317.5" cy="142.4" r="1.31" fill="#9a9a9a" opacity="0.43" />
    <circle cx="322.0" cy="163.6" r="1.73" fill="#9c9c9c" opacity="0.42" />
    <circle cx="322.0" cy="174.8" r="1.33" fill="#9e9e9e" opacity="0.42" />
    <circle cx="324.9" cy="166.4" r="1.41" fill="#a0a0a0" opacity="0.41" />
    <circle cx="326.7" cy="164.9" r="1.60" fill="#a2a2a2" opacity="0.40" />
    <circle cx="320.5" cy="190.7" r="1.38" fill="#a4a4a4" opacity="0.40" />
    <circle cx="306.6" cy="211.0" r="1.52" fill="#a6a6a6" opacity="0.39" />
    <circle cx="289.0" cy="225.2" r="1.24" fill="#a8a8a8" opacity="0.38" />
    <circle cx="284.0" cy="229.8" r="1.33" fill="#aaaaaa" opacity="0.38" />
    <circle cx="253.8" cy="242.1" r="1.19" fill="#acacac" opacity="0.37" />
    <circle cx="232.2" cy="247.2" r="1.31" fill="#aeaeae" opacity="0.36" />
    <circle cx="233.5" cy="248.5" r="1.16" fill="#b0b0b0" opacity="0.36" />
    <circle cx="212.1" cy="250.8" r="1.21" fill="#b2b2b2" opacity="0.35" />
    <circle cx="189.5" cy="251.0" r="1.19" fill="#b4b4b4" opacity="0.34" />
    <circle cx="162.2" cy="246.8" r="1.14" fill="#b6b6b6" opacity="0.34" />
    <circle cx="130.7" cy="236.0" r="1.11" fill="#b8b8b8" opacity="0.33" />
    <circle cx="92.4" cy="208.7" r="1.07" fill="#bababa" opacity="0.33" />
    <circle cx="103.6" cy="221.5" r="1.04" fill="#bcbcbc" opacity="0.32" />
    <circle cx="86.7" cy="205.9" r="1.00" fill="#bebebe" opacity="0.31" />
    <circle cx="80.9" cy="199.8" r="0.93" fill="#c0c0c0" opacity="0.31" />
    <circle cx="204.5" cy="164.0" r="2.63" fill="#161616" opacity="0.86" />
    <circle cx="201.7" cy="158.4" r="4.37" fill="#181818" opacity="0.85" />
    <circle cx="200.7" cy="160.0" r="2.44" fill="#1a1a1a" opacity="0.84" />
    <circle cx="200.2" cy="156.1" r="3.60" fill="#1c1c1c" opacity="0.84" />
    <circle cx="200.2" cy="154.3" r="2.03" fill="#1e1e1e" opacity="0.83" />
    <circle cx="197.9" cy="155.3" r="3.66" fill="#202020" opacity="0.82" />
    <circle cx="197.9" cy="153.3" r="2.27" fill="#222222" opacity="0.82" />
    <circle cx="196.6" cy="152.3" r="2.64" fill="#242424" opacity="0.81" />
    <circle cx="202.6" cy="147.5" r="2.45" fill="#262626" opacity="0.80" />
    <circle cx="202.2" cy="146.9" r="3.11" fill="#282828" opacity="0.80" />
    <circle cx="213.0" cy="144.6" r="2.15" fill="#2a2a2a" opacity="0.79" />
    <circle cx="207.0" cy="143.5" r="1.93" fill="#2c2c2c" opacity="0.78" />
    <circle cx="218.5" cy="143.4" r="2.51" fill="#2e2e2e" opacity="0.78" />
    <circle cx="222.3" cy="143.3" r="2.86" fill="#303030" opacity="0.77" />
    <circle cx="214.4" cy="139.9" r="3.84" fill="#323232" opacity="0.76" />
    <circle cx="233.7" cy="147.1" r="3.69" fill="#343434" opacity="0.76" />
    <circle cx="233.4" cy="144.2" r="2.14" fill="#363636" opacity="0.75" />
    <circle cx="239.0" cy="149.1" r="3.53" fill="#383838" opacity="0.74" />
    <circle cx="245.0" cy="159.1" r="2.28" fill="#3a3a3a" opacity="0.74" />
    <circle cx="244.0" cy="149.5" r="3.42" fill="#3d3d3d" opacity="0.73" />
    <circle cx="247.5" cy="164.5" r="3.06" fill="#3f3f3f" opacity="0.72" />
    <circle cx="249.7" cy="163.7" r="3.51" fill="#414141" opacity="0.72" />
    <circle cx="242.8" cy="178.4" r="3.51" fill="#434343" opacity="0.71" />
    <circle cx="250.5" cy="170.7" r="2.42" fill="#454545" opacity="0.70" />
    <circle cx="234.7" cy="186.4" r="3.39" fill="#474747" opacity="0.70" />
    <circle cx="234.7" cy="187.0" r="3.21" fill="#494949" opacity="0.69" />
    <circle cx="238.5" cy="187.5" r="3.30" fill="#4b4b4b" opacity="0.69" />
    <circle cx="229.9" cy="192.0" r="2.55" fill="#4d4d4d" opacity="0.68" />
    <circle cx="220.2" cy="195.2" r="2.12" fill="#4f4f4f" opacity="0.67" />
    <circle cx="223.4" cy="195.5" r="2.27" fill="#515151" opacity="0.67" />
    <circle cx="186.1" cy="193.7" r="2.17" fill="#535353" opacity="0.66" />
    <circle cx="186.4" cy="195.5" r="3.30" fill="#555555" opacity="0.65" />
    <circle cx="175.8" cy="191.8" r="1.86" fill="#575757" opacity="0.65" />
    <circle cx="162.8" cy="185.5" r="3.18" fill="#595959" opacity="0.64" />
    <circle cx="169.0" cy="192.0" r="2.32" fill="#5b5b5b" opacity="0.63" />
    <circle cx="152.5" cy="177.1" r="2.55" fill="#5d5d5d" opacity="0.63" />
    <circle cx="149.3" cy="174.1" r="2.48" fill="#5f5f5f" opacity="0.62" />
    <circle cx="146.2" cy="169.8" r="1.62" fill="#616161" opacity="0.61" />
    <circle cx="145.3" cy="147.6" r="2.62" fill="#636363" opacity="0.61" />
    <circle cx="145.8" cy="142.4" r="2.09" fill="#656565" opacity="0.60" />
    <circle cx="141.2" cy="149.6" r="2.02" fill="#676767" opacity="0.59" />
    <circle cx="147.7" cy="134.1" r="2.51" fill="#696969" opacity="0.59" />
    <circle cx="150.8" cy="129.9" r="2.08" fill="#6b6b6b" opacity="0.58" />
    <circle cx="161.0" cy="120.4" r="1.70" fill="#6d6d6d" opacity="0.57" />
    <circle cx="176.1" cy="111.2" r="2.35" fill="#6f6f6f" opacity="0.57" />
    <circle cx="204.3" cy="105.3" r="1.87" fill="#717171" opacity="0.56" />
    <circle cx="199.2" cy="104.6" r="1.84" fill="#737373" opacity="0.55" />
    <circle cx="213.3" cy="103.0" r="2.22" fill="#757575" opacity="0.55" />
    <circle cx="228.3" cy="103.2" r="1.71" fill="#777777" opacity="0.54" />
    <circle cx="246.6" cy="106.8" r="2.30" fill="#797979" opacity="0.53" />
    <circle cx="243.2" cy="103.7" r="1.98" fill="#7b7b7b" opacity="0.53" />
    <circle cx="274.7" cy="118.0" r="2.25" fill="#7d7d7d" opacity="0.52" />
    <circle cx="289.5" cy="131.5" r="1.65" fill="#7f7f7f" opacity="0.52" />
    <circle cx="283.5" cy="121.2" r="1.65" fill="#818181" opacity="0.51" />
    <circle cx="300.0" cy="144.9" r="1.48" fill="#838383" opacity="0.50" />
    <circle cx="303.7" cy="152.4" r="1.56" fill="#858585" opacity="0.50" />
    <circle cx="304.3" cy="172.4" r="1.59" fill="#878787" opacity="0.49" />
    <circle cx="303.3" cy="179.2" r="1.96" fill="#898989" opacity="0.48" />
    <circle cx="294.9" cy="195.2" r="1.68" fill="#8b8b8b" opacity="0.48" />
    <circle cx="298.9" cy="194.4" r="1.72" fill="#8d8d8d" opacity="0.47" />
    <circle cx="297.3" cy="197.0" r="1.91" fill="#8f8f8f" opacity="0.46" />
    <circle cx="268.5" cy="220.6" r="1.76" fill="#929292" opacity="0.46" />
    <circle cx="228.0" cy="232.9" r="1.90" fill="#949494" opacity="0.45" />
    <circle cx="214.4" cy="235.0" r="1.72" fill="#969696" opacity="0.44" />
    <circle cx="214.6" cy="236.2" r="1.59" fill="#989898" opacity="0.44" />
    <circle cx="174.8" cy="233.1" r="1.52" fill="#9a9a9a" opacity="0.43" />
    <circle cx="193.6" cy="237.7" r="1.57" fill="#9c9c9c" opacity="0.42" />
    <circle cx="146.2" cy="225.8" r="1.54" fill="#9e9e9e" opacity="0.42" />
    <circle cx="155.0" cy="231.5" r="1.36" fill="#a0a0a0" opacity="0.41" />
    <circle cx="135.7" cy="223.4" r="1.44" fill="#a2a2a2" opacity="0.40" />
    <circle cx="125.5" cy="218.7" r="1.46" fill="#a4a4a4" opacity="0.40" />
    <circle cx="96.2" cy="188.1" r="1.34" fill="#a6a6a6" opacity="0.39" />
    <circle cx="90.9" cy="177.9" r="1.26" fill="#a8a8a8" opacity="0.38" />
    <circle cx="86.9" cy="164.4" r="1.33" fill="#aaaaaa" opacity="0.38" />
    <circle cx="88.9" cy="137.6" r="1.33" fill="#acacac" opacity="0.37" />
    <circle cx="86.3" cy="142.3" r="1.22" fill="#aeaeae" opacity="0.36" />
    <circle cx="106.5" cy="106.4" r="1.29" fill="#b0b0b0" opacity="0.36" />
    <circle cx="105.4" cy="105.7" r="1.20" fill="#b2b2b2" opacity="0.35" />
    <circle cx="125.3" cy="90.1" r="1.14" fill="#b4b4b4" opacity="0.34" />
    <circle cx="132.9" cy="84.8" r="1.13" fill="#b6b6b6" opacity="0.34" />
    <circle cx="170.5" cy="70.0" r="1.10" fill="#b8b8b8" opacity="0.33" />
    <circle cx="177.2" cy="67.6" r="1.08" fill="#bababa" opacity="0.33" />
    <circle cx="173.2" cy="67.1" r="1.05" fill="#bcbcbc" opacity="0.32" />
    <circle cx="198.9" cy="62.7" r="1.06" fill="#bebebe" opacity="0.31" />
    <circle cx="249.1" cy="64.8" r="1.01" fill="#c0c0c0" opacity="0.31" />
    <circle cx="208.6" cy="155.8" r="4.09" fill="#161616" opacity="0.86" />
    <circle cx="213.9" cy="155.3" r="4.24" fill="#181818" opacity="0.85" />
    <circle cx="210.2" cy="152.8" r="2.08" fill="#1a1a1a" opacity="0.84" />
    <circle cx="220.0" cy="156.7" r="2.92" fill="#1c1c1c" opacity="0.84" />
    <circle cx="221.2" cy="156.5" r="3.66" fill="#1e1e1e" opacity="0.83" />
    <circle cx="224.3" cy="159.2" r="2.50" fill="#202020" opacity="0.82" />
    <circle cx="221.2" cy="151.4" r="2.30" fill="#222222" opacity="0.82" />
    <circle cx="227.2" cy="159.2" r="2.50" fill="#242424" opacity="0.81" />
    <circle cx="228.6" cy="163.2" r="2.36" fill="#262626" opacity="0.80" />
    <circle cx="229.6" cy="164.9" r="2.22" fill="#282828" opacity="0.80" />
    <circle cx="227.7" cy="170.6" r="2.19" fill="#2a2a2a" opacity="0.79" />
    <circle cx="233.2" cy="163.0" r="3.49" fill="#2c2c2c" opacity="0.78" />
    <circle cx="226.1" cy="173.5" r="3.54" fill="#2e2e2e" opacity="0.78" />
    <circle cx="230.5" cy="172.6" r="3.31" fill="#303030" opacity="0.77" />
    <circle cx="227.4" cy="176.3" r="3.77" fill="#323232" opacity="0.76" />
    <circle cx="221.9" cy="179.2" r="4.02" fill="#343434" opacity="0.76" />
    <circle cx="212.3" cy="182.1" r="2.78" fill="#363636" opacity="0.75" />
    <circle cx="212.1" cy="183.3" r="2.57" fill="#383838" opacity="0.74" />
    <circle cx="195.5" cy="182.1" r="2.06" fill="#3a3a3a" opacity="0.74" />
    <circle cx="188.9" cy="180.7" r="3.52" fill="#3d3d3d" opacity="0.73" />
    <circle cx="187.8" cy="181.8" r="3.29" fill="#3f3f3f" opacity="0.72" />
    <circle cx="179.0" cy="177.9" r="3.40" fill="#414141" opacity="0.72" />
    <circle cx="177.6" cy="178.0" r="2.64" fill="#434343" opacity="0.71" />
    <circle cx="171.0" cy="173.3" r="3.41" fill="#454545" opacity="0.70" />
    <circle cx="166.6" cy="168.5" r="3.42" fill="#474747" opacity="0.70" />
    <circle cx="165.8" cy="169.3" r="2.88" fill="#494949" opacity="0.69" />
    <circle cx="162.4" cy="165.1" r="3.29" fill="#4b4b4b" opacity="0.69" />
    <circle cx="160.6" cy="161.0" r="3.15" fill="#4d4d4d" opacity="0.68" />
    <circle cx="162.1" cy="146.7" r="2.94" fill="#4f4f4f" opacity="0.67" />
    <circle cx="160.7" cy="147.9" r="3.33" fill="#515151" opacity="0.67" />
    <circle cx="163.8" cy="139.6" r="2.52" fill="#535353" opacity="0.66" />
    <circle cx="182.7" cy="125.7" r="2.75" fill="#555555" opacity="0.65" />
    <circle cx="184.8" cy="123.5" r="1.82" fill="#575757" opacity="0.65" />
    <circle cx="185.6" cy="122.2" r="2.15" fill="#595959" opacity="0.64" />
    <circle cx="204.0" cy="117.8" r="2.47" fill="#5b5b5b" opacity="0.63" />
    <circle cx="212.2" cy="116.4" r="2.14" fill="#5d5d5d" opacity="0.63" />
    <circle cx="228.3" cy="117.0" r="2.00" fill="#5f5f5f" opacity="0.62" />
    <circle cx="220.9" cy="114.6" r="1.79" fill="#616161" opacity="0.61" />
    <circle cx="249.0" cy="122.1" r="1.86" fill="#636363" opacity="0.61" />
    <circle cx="249.0" cy="120.4" r="2.59" fill="#656565" opacity="0.60" />
    <circle cx="274.6" cy="140.7" r="1.96" fill="#676767" opacity="0.59" />
    <circle cx="264.9" cy="126.9" r="1.87" fill="#696969" opacity="0.59" />
    <circle cx="274.4" cy="134.0" r="2.24" fill="#6b6b6b" opacity="0.58" />
    <circle cx="284.0" cy="151.8" r="2.23" fill="#6d6d6d" opacity="0.57" />
    <circle cx="286.2" cy="165.6" r="2.58" fill="#6f6f6f" opacity="0.57" />
    <circle cx="285.5" cy="175.6" r="2.19" fill="#717171" opacity="0.56" />
    <circle cx="283.8" cy="181.3" r="1.72" fill="#737373" opacity="0.55" />
    <circle cx="284.8" cy="183.8" r="2.03" fill="#757575" opacity="0.55" />
    <circle cx="260.4" cy="206.2" r="1.56" fill="#777777" opacity="0.54" />
    <circle cx="258.1" cy="208.3" r="1.63" fill="#797979" opacity="0.53" />
    <circle cx="246.5" cy="214.6" r="2.46" fill="#7b7b7b" opacity="0.53" />
    <circle cx="247.4" cy="216.0" r="2.04" fill="#7d7d7d" opacity="0.52" />
    <circle cx="207.7" cy="222.7" r="1.93" fill="#7f7f7f" opacity="0.52" />
    <circle cx="205.3" cy="223.7" r="2.21" fill="#818181" opacity="0.51" />
    <circle cx="166.6" cy="217.7" r="1.96" fill="#838383" opacity="0.50" />
    <circle cx="163.9" cy="217.4" r="2.20" fill="#858585" opacity="0.50" />
    <circle cx="169.0" cy="221.1" r="1.92" fill="#878787" opacity="0.49" />
    <circle cx="155.7" cy="217.2" r="1.44" fill="#898989" opacity="0.48" />
    <circle cx="145.1" cy="212.6" r="1.81" fill="#8b8b8b" opacity="0.48" />
    <circle cx="124.3" cy="197.7" r="1.85" fill="#8d8d8d" opacity="0.47" />
    <circle cx="108.8" cy="171.1" r="1.81" fill="#8f8f8f" opacity="0.46" />
    <circle cx="107.2" cy="147.8" r="1.73" fill="#929292" opacity="0.46" />
    <circle cx="106.7" cy="143.2" r="1.58" fill="#949494" opacity="0.45" />
    <circle cx="107.9" cy="136.6" r="1.83" fill="#969696" opacity="0.44" />
    <circle cx="119.3" cy="118.6" r="1.38" fill="#989898" opacity="0.44" />
    <circle cx="116.0" cy="118.8" r="1.57" fill="#9a9a9a" opacity="0.43" />
    <circle cx="122.6" cy="111.6" r="1.60" fill="#9c9c9c" opacity="0.42" />
    <circle cx="160.1" cy="88.0" r="1.48" fill="#9e9e9e" opacity="0.42" />
    <circle cx="160.8" cy="87.4" r="1.26" fill="#a0a0a0" opacity="0.41" />
    <circle cx="177.9" cy="81.4" r="1.33" fill="#a2a2a2" opacity="0.40" />
    <circle cx="183.2" cy="78.9" r="1.51" fill="#a4a4a4" opacity="0.40" />
    <circle cx="232.6" cy="77.6" r="1.52" fill="#a6a6a6" opacity="0.39" />
    <circle cx="254.0" cy="80.3" r="1.21" fill="#a8a8a8" opacity="0.38" />
    <circle cx="279.8" cy="88.8" r="1.34" fill="#aaaaaa" opacity="0.38" />
    <circle cx="303.0" cy="101.0" r="1.30" fill="#acacac" opacity="0.37" />
    <circle cx="308.8" cy="104.6" r="1.18" fill="#aeaeae" opacity="0.36" />
    <circle cx="311.9" cy="105.3" r="1.25" fill="#b0b0b0" opacity="0.36" />
    <circle cx="336.6" cy="139.8" r="1.21" fill="#b2b2b2" opacity="0.35" />
    <circle cx="335.9" cy="134.7" r="1.19" fill="#b4b4b4" opacity="0.34" />
    <circle cx="343.0" cy="158.7" r="1.13" fill="#b6b6b6" opacity="0.34" />
    <circle cx="344.2" cy="168.8" r="1.11" fill="#b8b8b8" opacity="0.33" />
    <circle cx="337.7" cy="194.2" r="1.08" fill="#bababa" opacity="0.33" />
    <circle cx="330.1" cy="207.1" r="1.07" fill="#bcbcbc" opacity="0.32" />
    <circle cx="323.6" cy="217.1" r="1.01" fill="#bebebe" opacity="0.31" />
    <circle cx="290.6" cy="240.6" r="0.99" fill="#c0c0c0" opacity="0.31" />
    <circle cx="75.6" cy="201.3" r="1.95" fill="#d3d3d3" opacity="0.26" />
    <circle cx="245.9" cy="155.4" r="1.81" fill="#707070" opacity="0.40" />
    <circle cx="238.5" cy="192.9" r="1.73" fill="#7f7f7f" opacity="0.38" />
    <circle cx="288.8" cy="199.2" r="2.39" fill="#a5a5a5" opacity="0.33" />
    <circle cx="70.9" cy="185.8" r="1.08" fill="#d1d1d1" opacity="0.27" />
    <circle cx="77.7" cy="161.0" r="1.97" fill="#c7c7c7" opacity="0.28" />
    <circle cx="197.0" cy="225.8" r="2.15" fill="#a0a0a0" opacity="0.34" />
    <circle cx="216.0" cy="274.2" r="1.73" fill="#d9d9d9" opacity="0.25" />
    <circle cx="273.3" cy="134.6" r="1.66" fill="#909090" opacity="0.36" />
    <circle cx="301.1" cy="81.5" r="1.31" fill="#cdcdcd" opacity="0.27" />
    <circle cx="101.0" cy="208.4" r="2.30" fill="#c2c2c2" opacity="0.29" />
    <circle cx="248.0" cy="100.0" r="1.32" fill="#9f9f9f" opacity="0.34" />
    <circle cx="158.5" cy="136.5" r="2.40" fill="#868686" opacity="0.37" />
    <circle cx="261.2" cy="211.9" r="1.71" fill="#9d9d9d" opacity="0.34" />
    <circle cx="146.9" cy="144.0" r="1.72" fill="#8c8c8c" opacity="0.36" />
    <circle cx="174.5" cy="215.0" r="1.18" fill="#999999" opacity="0.34" />
    <circle cx="107.3" cy="122.7" r="1.25" fill="#b7b7b7" opacity="0.30" />
    <circle cx="330.0" cy="185.3" r="2.02" fill="#c0c0c0" opacity="0.29" />
    <circle cx="253.4" cy="79.9" r="1.48" fill="#b8b8b8" opacity="0.30" />
    <circle cx="257.1" cy="85.8" r="2.37" fill="#b2b2b2" opacity="0.31" />
    <circle cx="294.5" cy="175.0" r="1.65" fill="#9e9e9e" opacity="0.34" />
    <circle cx="278.1" cy="105.4" r="2.21" fill="#aaaaaa" opacity="0.32" />
    <circle cx="131.6" cy="150.3" r="1.59" fill="#979797" opacity="0.35" />
    <circle cx="110.8" cy="207.2" r="1.88" fill="#bababa" opacity="0.30" />
    <circle cx="169.9" cy="165.8" r="2.35" fill="#747474" opacity="0.40" />
    <circle cx="186.9" cy="113.9" r="1.87" fill="#8b8b8b" opacity="0.37" />
    <circle cx="290.9" cy="79.0" r="2.19" fill="#c9c9c9" opacity="0.28" />
    <circle cx="181.0" cy="208.9" r="1.98" fill="#909090" opacity="0.36" />
    <circle cx="295.2" cy="94.0" r="0.95" fill="#bebebe" opacity="0.29" />
    <circle cx="190.1" cy="143.9" r="2.28" fill="#6a6a6a" opacity="0.41" />
    <circle cx="206.9" cy="44.0" r="1.55" fill="#dbdbdb" opacity="0.25" />
    <circle cx="187.8" cy="141.4" r="2.21" fill="#6e6e6e" opacity="0.41" />
    <circle cx="182.5" cy="103.7" r="2.26" fill="#989898" opacity="0.35" />
    <circle cx="217.5" cy="141.2" r="1.34" fill="#676767" opacity="0.42" />
    <circle cx="253.1" cy="202.0" r="1.70" fill="#8f8f8f" opacity="0.36" />
    <circle cx="235.4" cy="90.3" r="1.15" fill="#a7a7a7" opacity="0.33" />
    <circle cx="231.1" cy="143.3" r="1.83" fill="#6b6b6b" opacity="0.41" />
    <circle cx="254.8" cy="139.5" r="1.11" fill="#7f7f7f" opacity="0.38" />
    <circle cx="207.9" cy="221.7" r="1.28" fill="#9a9a9a" opacity="0.34" />
    <circle cx="217.2" cy="145.0" r="2.25" fill="#636363" opacity="0.42" />
  </g>
  <text x="430" y="150" font-family="Space Grotesk, Segoe UI, Helvetica, Arial, sans-serif" font-size="72" font-weight="700" fill="#0B0B0B">Entropy</text>
  <text x="430" y="196" font-family="Space Grotesk, Segoe UI, Helvetica, Arial, sans-serif" font-size="22" font-weight="500" fill="#3A3A3A">High-performance relational database engine in modern C++20</text>
</svg>
