<svg width="1200" height="320" viewBox="0 0 1200 320" fill="none" xmlns="http://www.w3.org/2000/svg" role="img" aria-label="Entropy Database Engine">
  <defs>
    <radialGradient id="core-light" cx="50%" cy="50%" r="50%">
      <stop offset="0%" stop-color="#0f0f0f" stop-opacity="0.9" />
      <stop offset="65%" stop-color="#8b8b8b" stop-opacity="0.35" />
      <stop offset="100%" stop-color="#8b8b8b" stop-opacity="0" />
    </radialGradient>
  </defs>
  <g>
    <circle cx="210" cy="160" r="56" fill="url(#core-light)" />
    <circle cx="210" cy="160" r="16" fill="#0f0f0f" opacity="0.9" />
    <circle cx="216.5" cy="158.3" r="4.2" fill="#191919" opacity="0.85" />
    <circle cx="203.2" cy="159.0" r="4.0" fill="#191919" opacity="0.85" />
    <circle cx="218.6" cy="162.8" r="4.7" fill="#1c1c1c" opacity="0.84" />
    <circle cx="203.7" cy="156.4" r="4.6" fill="#1c1c1c" opacity="0.84" />
    <circle cx="217.4" cy="163.4" r="4.4" fill="#1f1f1f" opacity="0.83" />
    <circle cx="201.3" cy="154.9" r="4.8" fill="#1f1f1f" opacity="0.83" />
    <circle cx="213.7" cy="167.1" r="4.4" fill="#222222" opacity="0.82" />
    <circle cx="205.2" cy="152.0" r="3.6" fill="#222222" opacity="0.82" />
    <circle cx="209.8" cy="170.9" r="4.5" fill="#252525" opacity="0.81" />
    <circle cx="210.3" cy="147.6" r="3.9" fill="#252525" opacity="0.81" />
    <circle cx="205.4" cy="172.3" r="4.3" fill="#282828" opacity="0.80" />
    <circle cx="215.1" cy="147.2" r="4.6" fill="#282828" opacity="0.80" />
    <circle cx="198.8" cy="169.9" r="3.6" fill="#2c2c2c" opacity="0.79" />
    <circle cx="221.4" cy="148.0" r="3.5" fill="#2c2c2c" opacity="0.79" />
    <circle cx="191.7" cy="167.5" r="3.5" fill="#2f2f2f" opacity="0.78" />
    <circle cx="230.7" cy="153.7" r="4.0" fill="#2f2f2f" opacity="0.78" />
    <circle cx="185.9" cy="163.4" r="3.6" fill="#323232" opacity="0.76" />
    <circle cx="233.8" cy="158.5" r="4.0" fill="#323232" opacity="0.76" />
    <circle cx="185.5" cy="155.3" r="4.0" fill="#353535" opacity="0.75" />
    <circle cx="237.0" cy="165.4" r="3.4" fill="#353535" opacity="0.75" />
    <circle cx="187.8" cy="145.9" r="3.9" fill="#383838" opacity="0.74" />
    <circle cx="232.0" cy="171.7" r="3.4" fill="#383838" opacity="0.74" />
    <circle cx="192.6" cy="140.2" r="3.6" fill="#3c3c3c" opacity="0.73" />
    <circle cx="224.5" cy="178.1" r="4.1" fill="#3c3c3c" opacity="0.73" />
    <circle cx="205.4" cy="136.3" r="4.0" fill="#3f3f3f" opacity="0.72" />
    <circle cx="214.6" cy="182.2" r="3.1" fill="#3f3f3f" opacity="0.72" />
    <circle cx="217.3" cy="137.1" r="3.4" fill="#424242" opacity="0.71" />
    <circle cx="202.4" cy="184.9" r="3.2" fill="#424242" opacity="0.71" />
    <circle cx="230.6" cy="138.9" r="2.9" fill="#454545" opacity="0.70" />
    <circle cx="187.0" cy="181.5" r="3.8" fill="#454545" opacity="0.70" />
    <circle cx="245.6" cy="144.9" r="3.5" fill="#484848" opacity="0.69" />
    <circle cx="176.4" cy="176.3" r="3.1" fill="#484848" opacity="0.69" />
    <circle cx="253.2" cy="154.9" r="3.6" fill="#4c4c4c" opacity="0.68" />
    <circle cx="167.1" cy="164.4" r="3.4" fill="#4c4c4c" opacity="0.68" />
    <circle cx="253.7" cy="164.7" r="3.2" fill="#4f4f4f" opacity="0.67" />
    <circle cx="164.6" cy="156.0" r="2.7" fill="#4f4f4f" opacity="0.67" />
    <circle cx="251.6" cy="176.9" r="2.7" fill="#525252" opacity="0.66" />
    <circle cx="170.3" cy="142.1" r="3.6" fill="#525252" opacity="0.66" />
    <circle cx="240.9" cy="187.9" r="3.6" fill="#555555" opacity="0.65" />
    <circle cx="179.7" cy="131.1" r="3.2" fill="#555555" opacity="0.65" />
    <circle cx="223.3" cy="194.4" r="3.4" fill="#585858" opacity="0.64" />
    <circle cx="197.2" cy="126.2" r="3.1" fill="#585858" opacity="0.64" />
    <circle cx="202.8" cy="196.7" r="2.5" fill="#5c5c5c" opacity="0.63" />
    <circle cx="218.6" cy="122.3" r="2.5" fill="#5c5c5c" opacity="0.63" />
    <circle cx="181.1" cy="193.0" r="2.7" fill="#5f5f5f" opacity="0.62" />
    <circle cx="236.0" cy="125.8" r="3.4" fill="#5f5f5f" opacity="0.62" />
    <circle cx="165.4" cy="185.8" r="3.2" fill="#626262" opacity="0.61" />
    <circle cx="254.1" cy="133.5" r="3.3" fill="#626262" opacity="0.61" />
    <circle cx="153.4" cy="173.0" r="3.2" fill="#656565" opacity="0.59" />
    <circle cx="270.1" cy="148.4" r="2.4" fill="#656565" opacity="0.59" />
    <circle cx="144.9" cy="157.5" r="2.4" fill="#686868" opacity="0.58" />
    <circle cx="274.0" cy="163.5" r="2.2" fill="#686868" opacity="0.58" />
    <circle cx="150.1" cy="140.3" r="3.0" fill="#6b6b6b" opacity="0.57" />
    <circle cx="267.7" cy="180.0" r="3.1" fill="#6b6b6b" opacity="0.57" />
    <circle cx="164.1" cy="126.3" r="2.4" fill="#6f6f6f" opacity="0.56" />
    <circle cx="257.0" cy="194.5" r="2.7" fill="#6f6f6f" opacity="0.56" />
    <circle cx="185.5" cy="112.6" r="2.1" fill="#727272" opacity="0.55" />
    <circle cx="236.0" cy="207.5" r="3.0" fill="#727272" opacity="0.55" />
    <circle cx="211.0" cy="109.6" r="2.9" fill="#757575" opacity="0.54" />
    <circle cx="208.6" cy="209.6" r="3.0" fill="#757575" opacity="0.54" />
    <circle cx="240.5" cy="111.9" r="2.7" fill="#787878" opacity="0.53" />
    <circle cx="181.5" cy="208.4" r="2.8" fill="#787878" opacity="0.53" />
    <circle cx="262.8" cy="121.1" r="1.7" fill="#7b7b7b" opacity="0.52" />
    <circle cx="153.7" cy="199.8" r="2.6" fill="#7b7b7b" opacity="0.52" />
    <circle cx="284.5" cy="139.2" r="2.0" fill="#7f7f7f" opacity="0.51" />
    <circle cx="136.2" cy="180.4" r="2.7" fill="#7f7f7f" opacity="0.51" />
    <circle cx="293.2" cy="160.1" r="2.5" fill="#828282" opacity="0.50" />
    <circle cx="126.6" cy="161.5" r="2.6" fill="#828282" opacity="0.50" />
    <circle cx="287.4" cy="181.3" r="2.5" fill="#858585" opacity="0.49" />
    <circle cx="132.0" cy="138.3" r="1.8" fill="#858585" opacity="0.49" />
    <circle cx="274.2" cy="200.7" r="2.4" fill="#888888" opacity="0.48" />
    <circle cx="144.9" cy="120.8" r="1.5" fill="#888888" opacity="0.48" />
    <circle cx="248.9" cy="214.7" r="2.4" fill="#8b8b8b" opacity="0.47" />
    <circle cx="170.9" cy="105.1" r="2.4" fill="#8b8b8b" opacity="0.47" />
    <circle cx="215.9" cy="222.9" r="1.5" fill="#8f8f8f" opacity="0.46" />
    <circle cx="204.8" cy="97.0" r="2.3" fill="#8f8f8f" opacity="0.46" />
    <circle cx="181.9" cy="222.5" r="1.8" fill="#929292" opacity="0.45" />
    <circle cx="236.5" cy="96.6" r="1.6" fill="#929292" opacity="0.45" />
    <circle cx="149.0" cy="212.3" r="2.1" fill="#959595" opacity="0.44" />
    <circle cx="269.4" cy="107.0" r="1.4" fill="#959595" opacity="0.44" />
    <circle cx="122.8" cy="193.8" r="1.2" fill="#989898" opacity="0.42" />
    <circle cx="294.7" cy="128.1" r="1.3" fill="#989898" opacity="0.42" />
    <circle cx="111.8" cy="167.4" r="1.4" fill="#9b9b9b" opacity="0.41" />
    <circle cx="308.5" cy="151.6" r="2.0" fill="#9b9b9b" opacity="0.41" />
    <circle cx="109.6" cy="140.8" r="2.1" fill="#9f9f9f" opacity="0.40" />
    <circle cx="310.9" cy="178.2" r="1.3" fill="#9f9f9f" opacity="0.40" />
    <circle cx="125.3" cy="117.6" r="1.6" fill="#a2a2a2" opacity="0.39" />
    <circle cx="295.7" cy="202.3" r="1.4" fill="#a2a2a2" opacity="0.39" />
    <circle cx="151.7" cy="96.1" r="2.0" fill="#a5a5a5" opacity="0.38" />
    <circle cx="266.6" cy="223.5" r="1.4" fill="#a5a5a5" opacity="0.38" />
    <circle cx="191.4" cy="85.2" r="1.9" fill="#a8a8a8" opacity="0.37" />
    <circle cx="231.2" cy="234.0" r="1.2" fill="#a8a8a8" opacity="0.37" />
    <circle cx="232.0" cy="82.7" r="1.8" fill="#ababab" opacity="0.36" />
    <circle cx="189.0" cy="235.8" r="1.2" fill="#ababab" opacity="0.36" />
    <circle cx="271.5" cy="93.1" r="1.8" fill="#afafaf" opacity="0.35" />
    <circle cx="147.1" cy="226.0" r="1.2" fill="#afafaf" opacity="0.35" />
    <circle cx="309.9" cy="124.1" r="1.2" fill="#989898" opacity="0.43" />
    <circle cx="332.8" cy="161.3" r="1.7" fill="#929292" opacity="0.44" />
    <circle cx="265.1" cy="227.5" r="1.6" fill="#aaaaaa" opacity="0.37" />
    <circle cx="118.8" cy="221.3" r="1.6" fill="#929292" opacity="0.44" />
    <circle cx="102.3" cy="200.6" r="1.7" fill="#9e9e9e" opacity="0.40" />
    <circle cx="272.4" cy="222.5" r="1.4" fill="#a6a6a6" opacity="0.38" />
    <circle cx="209.0" cy="89.0" r="1.4" fill="#a1a1a1" opacity="0.40" />
    <circle cx="276.5" cy="231.3" r="1.4" fill="#aaaaaa" opacity="0.36" />
    <circle cx="160.5" cy="95.5" r="1.2" fill="#a2a2a2" opacity="0.39" />
    <circle cx="114.0" cy="115.1" r="1.9" fill="#989898" opacity="0.43" />
    <circle cx="307.2" cy="129.6" r="1.2" fill="#a0a0a0" opacity="0.40" />
    <circle cx="158.5" cy="94.7" r="2.1" fill="#9c9c9c" opacity="0.41" />
    <circle cx="91.3" cy="181.0" r="1.8" fill="#939393" opacity="0.44" />
    <circle cx="199.8" cy="247.5" r="2.0" fill="#979797" opacity="0.43" />
  </g>

  <text x="430" y="150" font-family="Space Grotesk, Segoe UI, Helvetica, Arial, sans-serif" font-size="72" font-weight="700" fill="#111111">Entropy</text>
  <text x="430" y="196" font-family="Space Grotesk, Segoe UI, Helvetica, Arial, sans-serif" font-size="22" font-weight="500" fill="#3A3A3A">High-performance relational database engine in modern C++20</text>
</svg>
