<svg width="1200" height="320" viewBox="0 0 1200 320" fill="none" xmlns="http://www.w3.org/2000/svg" role="img" aria-label="Entropy Database Engine">
  <defs>
    <radialGradient id="core-dark" cx="50%" cy="50%" r="50%">
      <stop offset="0%" stop-color="#f8fafc" stop-opacity="0.9" />
      <stop offset="60%" stop-color="#cbd5e1" stop-opacity="0.35" />
      <stop offset="100%" stop-color="#cbd5e1" stop-opacity="0" />
    </radialGradient>
  </defs>
  <g>
    <circle cx="210" cy="160" r="58" fill="url(#core-dark)" />
    <circle cx="210" cy="160" r="18" fill="#f8fafc" opacity="0.92" />
    <circle cx="216.3" cy="160.9" r="3.24" fill="#eeeeee" opacity="0.88" />
    <circle cx="215.0" cy="164.2" r="3.73" fill="#ededed" opacity="0.87" />
    <circle cx="216.8" cy="164.2" r="4.24" fill="#ebebeb" opacity="0.87" />
    <circle cx="216.3" cy="166.1" r="3.26" fill="#e9e9e9" opacity="0.86" />
    <circle cx="213.5" cy="168.4" r="3.47" fill="#e8e8e8" opacity="0.85" />
    <circle cx="208.5" cy="169.9" r="4.45" fill="#e6e6e6" opacity="0.85" />
    <circle cx="208.2" cy="171.1" r="3.39" fill="#e4e4e4" opacity="0.84" />
    <circle cx="201.2" cy="170.2" r="2.09" fill="#e3e3e3" opacity="0.84" />
    <circle cx="200.1" cy="171.2" r="4.14" fill="#e1e1e1" opacity="0.83" />
    <circle cx="196.9" cy="170.7" r="3.39" fill="#dfdfdf" opacity="0.82" />
    <circle cx="193.7" cy="170.2" r="3.39" fill="#dedede" opacity="0.82" />
    <circle cx="187.9" cy="165.6" r="3.45" fill="#dcdcdc" opacity="0.81" />
    <circle cx="185.0" cy="162.4" r="3.97" fill="#dadada" opacity="0.81" />
    <circle cx="183.4" cy="163.6" r="2.89" fill="#d9d9d9" opacity="0.80" />
    <circle cx="181.6" cy="157.5" r="2.09" fill="#d7d7d7" opacity="0.79" />
    <circle cx="180.1" cy="156.6" r="2.26" fill="#d5d5d5" opacity="0.79" />
    <circle cx="178.8" cy="156.1" r="3.95" fill="#d4d4d4" opacity="0.78" />
    <circle cx="183.1" cy="145.2" r="3.60" fill="#d2d2d2" opacity="0.78" />
    <circle cx="182.2" cy="144.4" r="2.84" fill="#d0d0d0" opacity="0.77" />
    <circle cx="192.9" cy="137.1" r="2.52" fill="#cfcfcf" opacity="0.76" />
    <circle cx="188.0" cy="137.3" r="2.10" fill="#cdcdcd" opacity="0.76" />
    <circle cx="208.6" cy="132.0" r="3.24" fill="#cbcbcb" opacity="0.75" />
    <circle cx="216.9" cy="131.4" r="3.36" fill="#cacaca" opacity="0.75" />
    <circle cx="210.0" cy="129.8" r="1.81" fill="#c8c8c8" opacity="0.74" />
    <circle cx="218.9" cy="129.4" r="3.03" fill="#c6c6c6" opacity="0.73" />
    <circle cx="230.8" cy="131.2" r="3.27" fill="#c5c5c5" opacity="0.73" />
    <circle cx="240.8" cy="133.7" r="2.17" fill="#c3c3c3" opacity="0.72" />
    <circle cx="235.7" cy="130.8" r="2.73" fill="#c1c1c1" opacity="0.72" />
    <circle cx="254.6" cy="142.0" r="1.83" fill="#c0c0c0" opacity="0.71" />
    <circle cx="260.8" cy="151.0" r="2.23" fill="#bebebe" opacity="0.71" />
    <circle cx="259.6" cy="143.7" r="3.28" fill="#bcbcbc" opacity="0.70" />
    <circle cx="264.2" cy="150.6" r="1.85" fill="#bbbbbb" opacity="0.69" />
    <circle cx="266.6" cy="166.2" r="2.40" fill="#b9b9b9" opacity="0.69" />
    <circle cx="265.9" cy="173.9" r="3.15" fill="#b7b7b7" opacity="0.68" />
    <circle cx="266.4" cy="176.3" r="1.89" fill="#b6b6b6" opacity="0.68" />
    <circle cx="265.6" cy="178.9" r="2.38" fill="#b4b4b4" opacity="0.67" />
    <circle cx="256.7" cy="191.4" r="1.68" fill="#b2b2b2" opacity="0.66" />
    <circle cx="253.4" cy="194.2" r="2.99" fill="#b1b1b1" opacity="0.66" />
    <circle cx="232.8" cy="203.9" r="2.57" fill="#afafaf" opacity="0.65" />
    <circle cx="225.1" cy="207.3" r="2.08" fill="#adadad" opacity="0.65" />
    <circle cx="224.6" cy="208.0" r="1.74" fill="#acacac" opacity="0.64" />
    <circle cx="194.1" cy="209.1" r="2.43" fill="#aaaaaa" opacity="0.63" />
    <circle cx="187.4" cy="208.9" r="1.58" fill="#a8a8a8" opacity="0.63" />
    <circle cx="172.4" cy="205.9" r="1.70" fill="#a7a7a7" opacity="0.62" />
    <circle cx="168.4" cy="205.8" r="2.46" fill="#a5a5a5" opacity="0.62" />
    <circle cx="166.7" cy="206.1" r="2.54" fill="#a3a3a3" opacity="0.61" />
    <circle cx="151.7" cy="198.9" r="2.54" fill="#a2a2a2" opacity="0.60" />
    <circle cx="146.0" cy="194.8" r="1.66" fill="#a0a0a0" opacity="0.60" />
    <circle cx="136.5" cy="187.8" r="1.67" fill="#9e9e9e" opacity="0.59" />
    <circle cx="125.4" cy="165.1" r="1.49" fill="#9d9d9d" opacity="0.59" />
    <circle cx="125.3" cy="148.9" r="1.79" fill="#9b9b9b" opacity="0.58" />
    <circle cx="122.1" cy="158.1" r="2.17" fill="#999999" opacity="0.57" />
    <circle cx="129.8" cy="131.5" r="1.89" fill="#989898" opacity="0.57" />
    <circle cx="143.0" cy="116.7" r="1.52" fill="#969696" opacity="0.56" />
    <circle cx="146.8" cy="111.6" r="1.45" fill="#949494" opacity="0.56" />
    <circle cx="169.8" cy="99.8" r="1.84" fill="#939393" opacity="0.55" />
    <circle cx="171.0" cy="98.0" r="1.44" fill="#919191" opacity="0.54" />
    <circle cx="183.3" cy="94.3" r="1.91" fill="#8f8f8f" opacity="0.54" />
    <circle cx="204.7" cy="90.5" r="1.42" fill="#8e8e8e" opacity="0.53" />
    <circle cx="199.3" cy="89.8" r="1.40" fill="#8c8c8c" opacity="0.53" />
    <circle cx="227.3" cy="89.4" r="1.71" fill="#8a8a8a" opacity="0.52" />
    <circle cx="250.4" cy="93.3" r="1.67" fill="#898989" opacity="0.51" />
    <circle cx="270.5" cy="99.5" r="1.38" fill="#878787" opacity="0.51" />
    <circle cx="295.9" cy="115.7" r="1.68" fill="#858585" opacity="0.50" />
    <circle cx="308.4" cy="127.9" r="1.41" fill="#848484" opacity="0.50" />
    <circle cx="309.0" cy="125.1" r="1.45" fill="#828282" opacity="0.49" />
    <circle cx="318.1" cy="139.0" r="1.32" fill="#808080" opacity="0.48" />
    <circle cx="323.3" cy="153.5" r="1.42" fill="#7f7f7f" opacity="0.48" />
    <circle cx="325.3" cy="158.6" r="1.27" fill="#7d7d7d" opacity="0.47" />
    <circle cx="316.3" cy="193.2" r="1.27" fill="#7b7b7b" opacity="0.47" />
    <circle cx="307.2" cy="208.1" r="1.41" fill="#7a7a7a" opacity="0.46" />
    <circle cx="302.4" cy="213.8" r="1.31" fill="#787878" opacity="0.46" />
    <circle cx="308.8" cy="209.5" r="1.38" fill="#767676" opacity="0.45" />
    <circle cx="260.6" cy="239.1" r="1.36" fill="#757575" opacity="0.44" />
    <circle cx="229.2" cy="246.5" r="1.25" fill="#737373" opacity="0.44" />
    <circle cx="234.8" cy="246.7" r="1.28" fill="#717171" opacity="0.43" />
    <circle cx="235.9" cy="247.7" r="1.27" fill="#707070" opacity="0.43" />
    <circle cx="198.9" cy="250.5" r="1.20" fill="#6e6e6e" opacity="0.42" />
    <circle cx="148.5" cy="240.9" r="1.20" fill="#6c6c6c" opacity="0.41" />
    <circle cx="129.0" cy="233.7" r="1.14" fill="#6b6b6b" opacity="0.41" />
    <circle cx="150.9" cy="244.2" r="1.11" fill="#696969" opacity="0.40" />
    <circle cx="121.5" cy="233.0" r="1.07" fill="#676767" opacity="0.40" />
    <circle cx="100.8" cy="219.2" r="1.08" fill="#666666" opacity="0.39" />
    <circle cx="73.0" cy="177.9" r="1.03" fill="#646464" opacity="0.38" />
    <circle cx="78.5" cy="195.3" r="1.05" fill="#626262" opacity="0.38" />
    <circle cx="204.8" cy="163.3" r="3.18" fill="#eeeeee" opacity="0.88" />
    <circle cx="203.0" cy="162.5" r="3.95" fill="#ededed" opacity="0.87" />
    <circle cx="200.9" cy="158.8" r="2.25" fill="#ebebeb" opacity="0.87" />
    <circle cx="199.4" cy="163.3" r="3.61" fill="#e9e9e9" opacity="0.86" />
    <circle cx="197.9" cy="158.2" r="3.69" fill="#e8e8e8" opacity="0.85" />
    <circle cx="197.4" cy="155.8" r="2.68" fill="#e6e6e6" opacity="0.85" />
    <circle cx="196.9" cy="154.3" r="3.05" fill="#e4e4e4" opacity="0.84" />
    <circle cx="198.2" cy="150.8" r="3.16" fill="#e3e3e3" opacity="0.84" />
    <circle cx="198.4" cy="149.8" r="2.91" fill="#e1e1e1" opacity="0.83" />
    <circle cx="199.9" cy="147.6" r="2.66" fill="#dfdfdf" opacity="0.82" />
    <circle cx="200.0" cy="146.4" r="2.53" fill="#dedede" opacity="0.82" />
    <circle cx="203.7" cy="143.9" r="3.65" fill="#dcdcdc" opacity="0.81" />
    <circle cx="209.1" cy="142.3" r="3.51" fill="#dadada" opacity="0.81" />
    <circle cx="221.5" cy="143.1" r="3.71" fill="#d9d9d9" opacity="0.80" />
    <circle cx="221.3" cy="141.8" r="1.98" fill="#d7d7d7" opacity="0.79" />
    <circle cx="226.2" cy="142.5" r="3.75" fill="#d5d5d5" opacity="0.79" />
    <circle cx="235.4" cy="146.8" r="3.38" fill="#d4d4d4" opacity="0.78" />
    <circle cx="236.5" cy="144.9" r="1.90" fill="#d2d2d2" opacity="0.78" />
    <circle cx="242.7" cy="151.9" r="3.12" fill="#d0d0d0" opacity="0.77" />
    <circle cx="246.5" cy="163.3" r="2.01" fill="#cfcfcf" opacity="0.76" />
    <circle cx="247.9" cy="162.7" r="3.00" fill="#cdcdcd" opacity="0.76" />
    <circle cx="249.2" cy="164.6" r="2.42" fill="#cbcbcb" opacity="0.75" />
    <circle cx="250.1" cy="166.7" r="2.12" fill="#cacaca" opacity="0.75" />
    <circle cx="248.4" cy="172.9" r="2.76" fill="#c8c8c8" opacity="0.74" />
    <circle cx="238.1" cy="184.0" r="3.13" fill="#c6c6c6" opacity="0.73" />
    <circle cx="230.8" cy="189.3" r="2.19" fill="#c5c5c5" opacity="0.73" />
    <circle cx="241.9" cy="184.5" r="2.84" fill="#c3c3c3" opacity="0.72" />
    <circle cx="218.4" cy="194.2" r="2.05" fill="#c1c1c1" opacity="0.72" />
    <circle cx="210.7" cy="195.7" r="3.04" fill="#c0c0c0" opacity="0.71" />
    <circle cx="202.2" cy="196.4" r="3.29" fill="#bebebe" opacity="0.71" />
    <circle cx="196.3" cy="196.6" r="2.74" fill="#bcbcbc" opacity="0.70" />
    <circle cx="179.4" cy="192.5" r="1.93" fill="#bbbbbb" opacity="0.69" />
    <circle cx="191.2" cy="198.0" r="2.16" fill="#b9b9b9" opacity="0.69" />
    <circle cx="178.5" cy="195.7" r="2.46" fill="#b7b7b7" opacity="0.68" />
    <circle cx="166.1" cy="189.4" r="1.74" fill="#b6b6b6" opacity="0.68" />
    <circle cx="151.9" cy="176.8" r="2.94" fill="#b4b4b4" opacity="0.67" />
    <circle cx="146.6" cy="164.8" r="2.38" fill="#b2b2b2" opacity="0.66" />
    <circle cx="145.2" cy="166.3" r="2.76" fill="#b1b1b1" opacity="0.66" />
    <circle cx="144.8" cy="149.0" r="2.74" fill="#afafaf" opacity="0.65" />
    <circle cx="144.0" cy="147.1" r="2.25" fill="#adadad" opacity="0.65" />
    <circle cx="140.7" cy="152.4" r="1.72" fill="#acacac" opacity="0.64" />
    <circle cx="157.9" cy="125.6" r="2.50" fill="#aaaaaa" opacity="0.63" />
    <circle cx="154.8" cy="126.6" r="1.87" fill="#a8a8a8" opacity="0.63" />
    <circle cx="162.9" cy="119.1" r="2.19" fill="#a7a7a7" opacity="0.62" />
    <circle cx="163.8" cy="117.3" r="1.87" fill="#a5a5a5" opacity="0.62" />
    <circle cx="183.3" cy="108.6" r="2.22" fill="#a3a3a3" opacity="0.61" />
    <circle cx="214.0" cy="104.1" r="1.58" fill="#a2a2a2" opacity="0.60" />
    <circle cx="200.4" cy="103.3" r="1.81" fill="#a0a0a0" opacity="0.60" />
    <circle cx="240.2" cy="105.9" r="2.46" fill="#9e9e9e" opacity="0.59" />
    <circle cx="257.3" cy="110.5" r="2.08" fill="#9d9d9d" opacity="0.59" />
    <circle cx="244.0" cy="104.3" r="2.44" fill="#9b9b9b" opacity="0.58" />
    <circle cx="276.9" cy="119.8" r="2.03" fill="#999999" opacity="0.57" />
    <circle cx="291.9" cy="134.2" r="1.79" fill="#989898" opacity="0.57" />
    <circle cx="297.9" cy="143.7" r="2.03" fill="#969696" opacity="0.56" />
    <circle cx="302.5" cy="155.3" r="2.01" fill="#949494" opacity="0.56" />
    <circle cx="304.2" cy="156.2" r="1.76" fill="#939393" opacity="0.55" />
    <circle cx="306.0" cy="160.2" r="1.53" fill="#919191" opacity="0.54" />
    <circle cx="306.4" cy="171.9" r="1.75" fill="#8f8f8f" opacity="0.54" />
    <circle cx="305.5" cy="178.1" r="1.42" fill="#8e8e8e" opacity="0.53" />
    <circle cx="283.2" cy="207.9" r="1.90" fill="#8c8c8c" opacity="0.53" />
    <circle cx="266.0" cy="220.6" r="1.37" fill="#8a8a8a" opacity="0.52" />
    <circle cx="273.8" cy="217.9" r="1.41" fill="#898989" opacity="0.51" />
    <circle cx="261.5" cy="224.2" r="1.82" fill="#878787" opacity="0.51" />
    <circle cx="219.3" cy="234.9" r="1.40" fill="#858585" opacity="0.50" />
    <circle cx="221.5" cy="235.8" r="1.66" fill="#848484" opacity="0.50" />
    <circle cx="213.0" cy="237.3" r="1.43" fill="#828282" opacity="0.49" />
    <circle cx="165.8" cy="232.1" r="1.52" fill="#808080" opacity="0.48" />
    <circle cx="166.9" cy="233.4" r="1.47" fill="#7f7f7f" opacity="0.48" />
    <circle cx="127.5" cy="216.6" r="1.63" fill="#7d7d7d" opacity="0.47" />
    <circle cx="108.3" cy="200.4" r="1.34" fill="#7b7b7b" opacity="0.47" />
    <circle cx="114.7" cy="209.2" r="1.55" fill="#7a7a7a" opacity="0.46" />
    <circle cx="92.9" cy="177.9" r="1.25" fill="#787878" opacity="0.46" />
    <circle cx="95.3" cy="188.2" r="1.44" fill="#767676" opacity="0.45" />
    <circle cx="86.8" cy="165.0" r="1.39" fill="#757575" opacity="0.44" />
    <circle cx="90.3" cy="135.5" r="1.33" fill="#737373" opacity="0.44" />
    <circle cx="86.4" cy="139.9" r="1.19" fill="#717171" opacity="0.43" />
    <circle cx="96.2" cy="117.7" r="1.18" fill="#707070" opacity="0.43" />
    <circle cx="104.8" cy="107.1" r="1.14" fill="#6e6e6e" opacity="0.42" />
    <circle cx="102.5" cy="107.1" r="1.14" fill="#6c6c6c" opacity="0.41" />
    <circle cx="168.4" cy="71.7" r="1.12" fill="#6b6b6b" opacity="0.41" />
    <circle cx="190.4" cy="66.6" r="1.11" fill="#696969" opacity="0.40" />
    <circle cx="199.1" cy="65.0" r="1.08" fill="#676767" opacity="0.40" />
    <circle cx="230.4" cy="64.7" r="1.07" fill="#666666" opacity="0.39" />
    <circle cx="244.3" cy="65.4" r="1.07" fill="#646464" opacity="0.38" />
    <circle cx="224.3" cy="61.7" r="0.95" fill="#626262" opacity="0.38" />
    <circle cx="212.8" cy="156.1" r="3.47" fill="#eeeeee" opacity="0.88" />
    <circle cx="209.2" cy="154.5" r="2.84" fill="#ededed" opacity="0.87" />
    <circle cx="211.8" cy="153.6" r="4.10" fill="#ebebeb" opacity="0.87" />
    <circle cx="214.0" cy="152.1" r="4.35" fill="#e9e9e9" opacity="0.86" />
    <circle cx="217.2" cy="151.5" r="3.32" fill="#e8e8e8" opacity="0.85" />
    <circle cx="219.1" cy="151.6" r="3.07" fill="#e6e6e6" opacity="0.85" />
    <circle cx="224.2" cy="154.6" r="3.02" fill="#e4e4e4" opacity="0.84" />
    <circle cx="226.8" cy="155.3" r="4.35" fill="#e3e3e3" opacity="0.84" />
    <circle cx="228.4" cy="157.1" r="3.18" fill="#e1e1e1" opacity="0.83" />
    <circle cx="228.7" cy="166.0" r="2.88" fill="#dfdfdf" opacity="0.82" />
    <circle cx="230.6" cy="165.9" r="4.23" fill="#dedede" opacity="0.82" />
    <circle cx="233.4" cy="162.7" r="3.75" fill="#dcdcdc" opacity="0.81" />
    <circle cx="229.7" cy="171.7" r="3.34" fill="#dadada" opacity="0.81" />
    <circle cx="223.0" cy="176.9" r="2.65" fill="#d9d9d9" opacity="0.80" />
    <circle cx="229.3" cy="174.7" r="3.69" fill="#d7d7d7" opacity="0.79" />
    <circle cx="222.9" cy="179.4" r="2.89" fill="#d5d5d5" opacity="0.79" />
    <circle cx="211.4" cy="182.2" r="3.60" fill="#d4d4d4" opacity="0.78" />
    <circle cx="215.1" cy="183.2" r="2.82" fill="#d2d2d2" opacity="0.78" />
    <circle cx="211.1" cy="184.7" r="2.26" fill="#d0d0d0" opacity="0.77" />
    <circle cx="202.0" cy="184.9" r="2.88" fill="#cfcfcf" opacity="0.76" />
    <circle cx="183.1" cy="178.8" r="2.33" fill="#cdcdcd" opacity="0.76" />
    <circle cx="182.2" cy="180.5" r="2.51" fill="#cbcbcb" opacity="0.75" />
    <circle cx="173.1" cy="172.5" r="2.44" fill="#cacaca" opacity="0.75" />
    <circle cx="177.8" cy="180.1" r="3.48" fill="#c8c8c8" opacity="0.74" />
    <circle cx="165.8" cy="163.5" r="2.50" fill="#c6c6c6" opacity="0.73" />
    <circle cx="164.0" cy="157.4" r="2.67" fill="#c5c5c5" opacity="0.73" />
    <circle cx="163.5" cy="152.1" r="3.20" fill="#c3c3c3" opacity="0.72" />
    <circle cx="161.9" cy="152.6" r="2.80" fill="#c1c1c1" opacity="0.72" />
    <circle cx="166.3" cy="141.5" r="2.28" fill="#c0c0c0" opacity="0.71" />
    <circle cx="160.8" cy="146.5" r="2.23" fill="#bebebe" opacity="0.71" />
    <circle cx="171.0" cy="133.8" r="2.85" fill="#bcbcbc" opacity="0.70" />
    <circle cx="169.6" cy="133.6" r="3.12" fill="#bbbbbb" opacity="0.69" />
    <circle cx="182.7" cy="123.9" r="2.12" fill="#b9b9b9" opacity="0.69" />
    <circle cx="209.3" cy="118.5" r="1.78" fill="#b7b7b7" opacity="0.68" />
    <circle cx="204.8" cy="117.7" r="2.89" fill="#b6b6b6" opacity="0.68" />
    <circle cx="221.7" cy="117.3" r="1.85" fill="#b4b4b4" opacity="0.67" />
    <circle cx="229.3" cy="117.5" r="1.68" fill="#b2b2b2" opacity="0.66" />
    <circle cx="223.8" cy="115.3" r="2.14" fill="#b1b1b1" opacity="0.66" />
    <circle cx="243.4" cy="119.3" r="2.46" fill="#afafaf" opacity="0.65" />
    <circle cx="263.4" cy="130.5" r="2.10" fill="#adadad" opacity="0.65" />
    <circle cx="271.5" cy="136.3" r="2.29" fill="#acacac" opacity="0.64" />
    <circle cx="273.0" cy="136.0" r="1.89" fill="#aaaaaa" opacity="0.63" />
    <circle cx="275.9" cy="137.6" r="2.19" fill="#a8a8a8" opacity="0.63" />
    <circle cx="284.1" cy="151.5" r="1.87" fill="#a7a7a7" opacity="0.62" />
    <circle cx="286.6" cy="156.4" r="2.74" fill="#a5a5a5" opacity="0.62" />
    <circle cx="287.2" cy="170.4" r="2.10" fill="#a3a3a3" opacity="0.61" />
    <circle cx="287.3" cy="175.3" r="2.02" fill="#a2a2a2" opacity="0.60" />
    <circle cx="267.7" cy="200.3" r="1.59" fill="#a0a0a0" opacity="0.60" />
    <circle cx="262.2" cy="205.9" r="1.83" fill="#9e9e9e" opacity="0.59" />
    <circle cx="267.4" cy="203.0" r="2.04" fill="#9d9d9d" opacity="0.59" />
    <circle cx="228.9" cy="219.2" r="2.18" fill="#9b9b9b" opacity="0.58" />
    <circle cx="214.1" cy="221.5" r="2.22" fill="#999999" opacity="0.57" />
    <circle cx="221.2" cy="222.2" r="1.63" fill="#989898" opacity="0.57" />
    <circle cx="216.7" cy="223.7" r="1.45" fill="#969696" opacity="0.56" />
    <circle cx="184.9" cy="222.6" r="2.12" fill="#949494" opacity="0.56" />
    <circle cx="167.2" cy="218.8" r="1.47" fill="#939393" opacity="0.55" />
    <circle cx="159.1" cy="216.5" r="1.97" fill="#919191" opacity="0.54" />
    <circle cx="138.4" cy="206.0" r="2.02" fill="#8f8f8f" opacity="0.54" />
    <circle cx="139.5" cy="208.1" r="1.84" fill="#8e8e8e" opacity="0.53" />
    <circle cx="118.8" cy="189.6" r="1.60" fill="#8c8c8c" opacity="0.53" />
    <circle cx="107.6" cy="162.3" r="1.77" fill="#8a8a8a" opacity="0.52" />
    <circle cx="107.9" cy="173.3" r="1.61" fill="#898989" opacity="0.51" />
    <circle cx="108.2" cy="141.1" r="1.39" fill="#878787" opacity="0.51" />
    <circle cx="103.1" cy="154.8" r="1.49" fill="#858585" opacity="0.50" />
    <circle cx="117.1" cy="120.6" r="1.80" fill="#848484" opacity="0.50" />
    <circle cx="137.4" cy="101.1" r="1.41" fill="#828282" opacity="0.49" />
    <circle cx="138.6" cy="99.5" r="1.33" fill="#808080" opacity="0.48" />
    <circle cx="138.4" cy="98.2" r="1.48" fill="#7f7f7f" opacity="0.48" />
    <circle cx="150.3" cy="90.3" r="1.31" fill="#7d7d7d" opacity="0.47" />
    <circle cx="194.0" cy="78.9" r="1.46" fill="#7b7b7b" opacity="0.47" />
    <circle cx="224.3" cy="77.7" r="1.50" fill="#7a7a7a" opacity="0.46" />
    <circle cx="192.7" cy="76.9" r="1.41" fill="#787878" opacity="0.46" />
    <circle cx="251.4" cy="80.0" r="1.41" fill="#767676" opacity="0.45" />
    <circle cx="262.8" cy="82.1" r="1.31" fill="#757575" opacity="0.44" />
    <circle cx="290.7" cy="92.9" r="1.37" fill="#737373" opacity="0.44" />
    <circle cx="304.2" cy="101.4" r="1.28" fill="#717171" opacity="0.43" />
    <circle cx="308.6" cy="101.9" r="1.16" fill="#707070" opacity="0.43" />
    <circle cx="328.5" cy="123.0" r="1.16" fill="#6e6e6e" opacity="0.42" />
    <circle cx="339.5" cy="144.0" r="1.18" fill="#6c6c6c" opacity="0.41" />
    <circle cx="342.3" cy="170.5" r="1.16" fill="#6b6b6b" opacity="0.41" />
    <circle cx="344.4" cy="155.0" r="1.11" fill="#696969" opacity="0.40" />
    <circle cx="342.7" cy="181.3" r="1.08" fill="#676767" opacity="0.40" />
    <circle cx="339.6" cy="191.8" r="1.06" fill="#666666" opacity="0.39" />
    <circle cx="323.4" cy="217.0" r="1.04" fill="#646464" opacity="0.38" />
    <circle cx="284.7" cy="243.3" r="1.01" fill="#626262" opacity="0.38" />
    <circle cx="172.4" cy="227.9" r="2.04" fill="#9c9c9c" opacity="0.39" />
    <circle cx="123.1" cy="154.0" r="1.65" fill="#a3a3a3" opacity="0.41" />
    <circle cx="271.0" cy="166.7" r="2.32" fill="#b4b4b4" opacity="0.45" />
    <circle cx="296.3" cy="146.2" r="1.22" fill="#a3a3a3" opacity="0.41" />
    <circle cx="274.3" cy="175.8" r="1.64" fill="#b0b0b0" opacity="0.44" />
    <circle cx="131.3" cy="74.0" r="1.61" fill="#828282" opacity="0.33" />
    <circle cx="263.0" cy="103.2" r="1.55" fill="#a0a0a0" opacity="0.40" />
    <circle cx="190.4" cy="56.7" r="2.05" fill="#828282" opacity="0.33" />
    <circle cx="153.7" cy="190.4" r="1.76" fill="#afafaf" opacity="0.44" />
    <circle cx="166.3" cy="148.6" r="1.01" fill="#bebebe" opacity="0.48" />
    <circle cx="218.0" cy="94.2" r="1.32" fill="#a3a3a3" opacity="0.41" />
    <circle cx="145.0" cy="55.7" r="1.08" fill="#787878" opacity="0.30" />
    <circle cx="90.8" cy="230.3" r="2.09" fill="#7a7a7a" opacity="0.31" />
    <circle cx="271.0" cy="141.5" r="2.03" fill="#b1b1b1" opacity="0.44" />
    <circle cx="163.2" cy="158.0" r="1.65" fill="#bdbdbd" opacity="0.47" />
    <circle cx="227.0" cy="174.9" r="1.40" fill="#cbcbcb" opacity="0.51" />
    <circle cx="129.1" cy="176.8" r="1.81" fill="#a5a5a5" opacity="0.41" />
    <circle cx="167.8" cy="219.3" r="1.82" fill="#a2a2a2" opacity="0.41" />
    <circle cx="251.9" cy="158.1" r="2.01" fill="#c0c0c0" opacity="0.48" />
    <circle cx="178.8" cy="198.8" r="2.14" fill="#b5b5b5" opacity="0.45" />
    <circle cx="186.5" cy="93.4" r="1.35" fill="#a0a0a0" opacity="0.40" />
    <circle cx="121.9" cy="231.8" r="1.91" fill="#888888" opacity="0.34" />
    <circle cx="78.3" cy="102.7" r="2.10" fill="#797979" opacity="0.30" />
    <circle cx="165.2" cy="78.2" r="0.94" fill="#8f8f8f" opacity="0.36" />
    <circle cx="292.3" cy="147.0" r="2.07" fill="#a5a5a5" opacity="0.41" />
    <circle cx="99.8" cy="116.1" r="1.98" fill="#8b8b8b" opacity="0.35" />
    <circle cx="257.3" cy="225.0" r="1.84" fill="#9c9c9c" opacity="0.39" />
    <circle cx="266.2" cy="94.7" r="1.12" fill="#999999" opacity="0.38" />
    <circle cx="319.7" cy="176.5" r="2.32" fill="#939393" opacity="0.37" />
    <circle cx="244.6" cy="163.1" r="1.37" fill="#c5c5c5" opacity="0.49" />
    <circle cx="195.2" cy="131.8" r="1.52" fill="#c1c1c1" opacity="0.48" />
    <circle cx="319.4" cy="115.2" r="2.21" fill="#8b8b8b" opacity="0.35" />
    <circle cx="320.3" cy="194.1" r="1.11" fill="#8f8f8f" opacity="0.36" />
    <circle cx="188.2" cy="192.1" r="1.89" fill="#bdbdbd" opacity="0.47" />
    <circle cx="174.5" cy="222.8" r="1.16" fill="#a1a1a1" opacity="0.40" />
    <circle cx="131.5" cy="249.8" r="1.43" fill="#7f7f7f" opacity="0.32" />
    <circle cx="187.4" cy="68.4" r="1.86" fill="#8b8b8b" opacity="0.35" />
    <circle cx="122.5" cy="105.7" r="1.19" fill="#929292" opacity="0.37" />
    <circle cx="160.2" cy="145.7" r="1.24" fill="#b9b9b9" opacity="0.46" />
    <circle cx="165.4" cy="268.5" r="1.33" fill="#7a7a7a" opacity="0.31" />
  </g>
  <text x="430" y="150" font-family="Space Grotesk, Segoe UI, Helvetica, Arial, sans-serif" font-size="72" font-weight="700" fill="#F8FAFC">Entropy</text>
  <text x="430" y="196" font-family="Space Grotesk, Segoe UI, Helvetica, Arial, sans-serif" font-size="22" font-weight="500" fill="#CBD5E1">High-performance relational database engine in modern C++20</text>
</svg>
