<svg width="1200" height="320" viewBox="0 0 1200 320" fill="none" xmlns="http://www.w3.org/2000/svg" role="img" aria-label="Entropy Database Engine">
  <g>
    <circle cx="200" cy="160" r="28" fill="#F5F5F5" />
    <circle cx="160" cy="130" r="18" fill="#E0E0E0" />
    <circle cx="240" cy="130" r="16" fill="#E0E0E0" />
    <circle cx="150" cy="190" r="14" fill="#CFCFCF" />
    <circle cx="250" cy="190" r="14" fill="#CFCFCF" />
    <circle cx="120" cy="160" r="10" fill="#BDBDBD" />
    <circle cx="280" cy="160" r="10" fill="#BDBDBD" />
    <circle cx="100" cy="120" r="8" fill="#A6A6A6" />
    <circle cx="300" cy="120" r="8" fill="#A6A6A6" />
    <circle cx="100" cy="200" r="7" fill="#A6A6A6" />
    <circle cx="300" cy="200" r="7" fill="#A6A6A6" />
    <circle cx="175" cy="105" r="7" fill="#9A9A9A" />
    <circle cx="225" cy="105" r="7" fill="#9A9A9A" />
    <circle cx="175" cy="215" r="6" fill="#9A9A9A" />
    <circle cx="225" cy="215" r="6" fill="#9A9A9A" />
    <circle cx="135" cy="115" r="6" fill="#8F8F8F" />
    <circle cx="265" cy="115" r="6" fill="#8F8F8F" />
    <circle cx="135" cy="205" r="5" fill="#8F8F8F" />
    <circle cx="265" cy="205" r="5" fill="#8F8F8F" />
    <circle cx="90" cy="160" r="5" fill="#858585" />
    <circle cx="310" cy="160" r="5" fill="#858585" />
    <circle cx="80" cy="135" r="4" fill="#7A7A7A" />
    <circle cx="80" cy="185" r="4" fill="#7A7A7A" />
    <circle cx="320" cy="135" r="4" fill="#7A7A7A" />
    <circle cx="320" cy="185" r="4" fill="#7A7A7A" />
    <circle cx="350" cy="150" r="6" fill="#A6A6A6" />
    <circle cx="370" cy="170" r="4" fill="#858585" />
    <circle cx="380" cy="145" r="3" fill="#707070" />
    <circle cx="340" cy="190" r="3" fill="#707070" />
    <circle cx="360" cy="120" r="3" fill="#707070" />
    <circle cx="210" cy="70" r="5" fill="#858585" />
    <circle cx="190" cy="85" r="4" fill="#707070" />
    <circle cx="225" cy="85" r="4" fill="#707070" />
    <circle cx="210" cy="250" r="5" fill="#858585" />
    <circle cx="190" cy="235" r="4" fill="#707070" />
    <circle cx="225" cy="235" r="4" fill="#707070" />
    <circle cx="150" cy="150" r="3" fill="#707070" />
    <circle cx="250" cy="150" r="3" fill="#707070" />
    <circle cx="150" cy="170" r="3" fill="#707070" />
    <circle cx="250" cy="170" r="3" fill="#707070" />
  </g>

  <text x="430" y="150" font-family="Space Grotesk, Segoe UI, Helvetica, Arial, sans-serif" font-size="72" font-weight="700" fill="#F5F5F5">Entropy</text>
  <text x="430" y="196" font-family="Space Grotesk, Segoe UI, Helvetica, Arial, sans-serif" font-size="22" font-weight="500" fill="#D4D4D4">High-performance relational database engine in modern C++20</text>
</svg>
