<svg width="1200" height="1080" viewBox="0 0 1200 1080" fill="none" xmlns="http://www.w3.org/2000/svg" role="img" aria-label="Entropy Architecture">
  <defs>
    <marker id="arrow-light" markerWidth="8" markerHeight="8" refX="6" refY="3" orient="auto">
      <path d="M0,0 L6,3 L0,6 Z" fill="#94A3B8" />
    </marker>
  </defs>

  <g font-family="Space Grotesk, Segoe UI, Helvetica, Arial, sans-serif" font-size="18" fill="#0F172A">
    <rect x="80" y="30" width="1040" height="70" rx="12" fill="#F8FAFC" stroke="#CBD5E1" />
    <text x="110" y="58">SQL Interface</text>

    <rect x="80" y="150" width="1040" height="70" rx="12" fill="#F8FAFC" stroke="#CBD5E1" />
    <text x="110" y="178">Parser + Binder</text>

    <rect x="80" y="270" width="1040" height="70" rx="12" fill="#F8FAFC" stroke="#CBD5E1" />
    <text x="110" y="298">Optimizer</text>

    <rect x="80" y="390" width="1040" height="70" rx="12" fill="#F8FAFC" stroke="#CBD5E1" />
    <text x="110" y="418">Execution Engine</text>

    <rect x="80" y="510" width="1040" height="70" rx="12" fill="#F8FAFC" stroke="#CBD5E1" />
    <text x="110" y="538">Transaction Manager</text>

    <rect x="80" y="630" width="1040" height="70" rx="12" fill="#F8FAFC" stroke="#CBD5E1" />
    <text x="110" y="658">Catalog</text>

    <rect x="80" y="750" width="1040" height="70" rx="12" fill="#F8FAFC" stroke="#CBD5E1" />
    <text x="110" y="778">Storage Engine</text>

    <rect x="80" y="870" width="1040" height="70" rx="12" fill="#F8FAFC" stroke="#CBD5E1" />
    <text x="110" y="898">Buffer Pool</text>

    <rect x="80" y="990" width="1040" height="70" rx="12" fill="#F8FAFC" stroke="#CBD5E1" />
    <text x="110" y="1018">Disk Manager</text>
  </g>

  <g font-family="Space Grotesk, Segoe UI, Helvetica, Arial, sans-serif" font-size="14" fill="#334155">
    <rect x="360" y="42" width="130" height="22" rx="6" fill="#EEF2F7" stroke="#CBD5E1" />
    <text x="388" y="58">CLI</text>
    <rect x="502" y="42" width="130" height="22" rx="6" fill="#EEF2F7" stroke="#CBD5E1" />
    <text x="530" y="58">C++ API</text>
    <rect x="644" y="42" width="130" height="22" rx="6" fill="#EEF2F7" stroke="#CBD5E1" />
    <text x="672" y="58">SQL Text</text>

    <rect x="360" y="162" width="130" height="22" rx="6" fill="#EEF2F7" stroke="#CBD5E1" />
    <text x="388" y="178">Lexer</text>
    <rect x="502" y="162" width="130" height="22" rx="6" fill="#EEF2F7" stroke="#CBD5E1" />
    <text x="528" y="178">Parser</text>
    <rect x="644" y="162" width="130" height="22" rx="6" fill="#EEF2F7" stroke="#CBD5E1" />
    <text x="686" y="178">AST</text>
    <rect x="786" y="162" width="130" height="22" rx="6" fill="#EEF2F7" stroke="#CBD5E1" />
    <text x="816" y="178">Binder</text>

    <rect x="360" y="282" width="130" height="22" rx="6" fill="#EEF2F7" stroke="#CBD5E1" />
    <text x="372" y="298">Statistics</text>
    <rect x="502" y="282" width="130" height="22" rx="6" fill="#EEF2F7" stroke="#CBD5E1" />
    <text x="516" y="298">Cost Model</text>
    <rect x="644" y="282" width="130" height="22" rx="6" fill="#EEF2F7" stroke="#CBD5E1" />
    <text x="658" y="298">Plan Nodes</text>
    <rect x="786" y="282" width="130" height="22" rx="6" fill="#EEF2F7" stroke="#CBD5E1" />
    <text x="792" y="298">Index Selector</text>

    <rect x="360" y="402" width="130" height="22" rx="6" fill="#EEF2F7" stroke="#CBD5E1" />
    <text x="374" y="418">Executor</text>
    <rect x="502" y="402" width="130" height="22" rx="6" fill="#EEF2F7" stroke="#CBD5E1" />
    <text x="516" y="418">Seq Scan</text>
    <rect x="644" y="402" width="130" height="22" rx="6" fill="#EEF2F7" stroke="#CBD5E1" />
    <text x="656" y="418">Index Scan</text>
    <rect x="786" y="402" width="130" height="22" rx="6" fill="#EEF2F7" stroke="#CBD5E1" />
    <text x="808" y="418">Hash Join</text>
    <rect x="360" y="430" width="130" height="22" rx="6" fill="#EEF2F7" stroke="#CBD5E1" />
    <text x="372" y="446">Aggregate</text>
    <rect x="502" y="430" width="130" height="22" rx="6" fill="#EEF2F7" stroke="#CBD5E1" />
    <text x="530" y="446">Sort</text>
    <rect x="644" y="430" width="130" height="22" rx="6" fill="#EEF2F7" stroke="#CBD5E1" />
    <text x="676" y="446">Filter</text>
    <rect x="786" y="430" width="130" height="22" rx="6" fill="#EEF2F7" stroke="#CBD5E1" />
    <text x="792" y="446">Insert/Update/Delete</text>

    <rect x="360" y="522" width="130" height="22" rx="6" fill="#EEF2F7" stroke="#CBD5E1" />
    <text x="388" y="538">MVCC</text>
    <rect x="502" y="522" width="130" height="22" rx="6" fill="#EEF2F7" stroke="#CBD5E1" />
    <text x="516" y="538">Lock Manager</text>
    <rect x="644" y="522" width="130" height="22" rx="6" fill="#EEF2F7" stroke="#CBD5E1" />
    <text x="690" y="538">WAL</text>
    <rect x="786" y="522" width="130" height="22" rx="6" fill="#EEF2F7" stroke="#CBD5E1" />
    <text x="808" y="538">Recovery</text>

    <rect x="360" y="642" width="130" height="22" rx="6" fill="#EEF2F7" stroke="#CBD5E1" />
    <text x="378" y="658">Schemas</text>
    <rect x="502" y="642" width="130" height="22" rx="6" fill="#EEF2F7" stroke="#CBD5E1" />
    <text x="528" y="658">Tables</text>
    <rect x="644" y="642" width="130" height="22" rx="6" fill="#EEF2F7" stroke="#CBD5E1" />
    <text x="666" y="658">Indexes</text>
    <rect x="786" y="642" width="130" height="22" rx="6" fill="#EEF2F7" stroke="#CBD5E1" />
    <text x="820" y="658">Stats</text>

    <rect x="360" y="762" width="130" height="22" rx="6" fill="#EEF2F7" stroke="#CBD5E1" />
    <text x="372" y="778">Table Heap</text>
    <rect x="502" y="762" width="130" height="22" rx="6" fill="#EEF2F7" stroke="#CBD5E1" />
    <text x="510" y="778">Slotted Page</text>
    <rect x="644" y="762" width="130" height="22" rx="6" fill="#EEF2F7" stroke="#CBD5E1" />
    <text x="686" y="778">Tuple</text>
    <rect x="360" y="790" width="130" height="22" rx="6" fill="#EEF2F7" stroke="#CBD5E1" />
    <text x="392" y="806">B+ Tree</text>
    <rect x="502" y="790" width="130" height="22" rx="6" fill="#EEF2F7" stroke="#CBD5E1" />
    <text x="520" y="806">Hash Index</text>
    <rect x="644" y="790" width="130" height="22" rx="6" fill="#EEF2F7" stroke="#CBD5E1" />
    <text x="656" y="806">Page Compression</text>

    <rect x="360" y="882" width="130" height="22" rx="6" fill="#EEF2F7" stroke="#CBD5E1" />
    <text x="372" y="898">LRU Replacer</text>
    <rect x="502" y="882" width="130" height="22" rx="6" fill="#EEF2F7" stroke="#CBD5E1" />
    <text x="520" y="898">Page Table</text>
    <rect x="644" y="882" width="130" height="22" rx="6" fill="#EEF2F7" stroke="#CBD5E1" />
    <text x="656" y="898">Pin/Unpin</text>
    <rect x="786" y="882" width="130" height="22" rx="6" fill="#EEF2F7" stroke="#CBD5E1" />
    <text x="800" y="898">Dirty Tracking</text>

    <rect x="360" y="1002" width="130" height="22" rx="6" fill="#EEF2F7" stroke="#CBD5E1" />
    <text x="374" y="1018">Page I/O</text>
    <rect x="502" y="1002" width="130" height="22" rx="6" fill="#EEF2F7" stroke="#CBD5E1" />
    <text x="524" y="1018">WAL I/O</text>
    <rect x="644" y="1002" width="130" height="22" rx="6" fill="#EEF2F7" stroke="#CBD5E1" />
    <text x="656" y="1018">File Abstraction</text>
  </g>

  <g stroke="#94A3B8" stroke-width="2" stroke-linecap="round" marker-end="url(#arrow-light)">
    <line x1="600" y1="100" x2="600" y2="150" />
    <line x1="600" y1="220" x2="600" y2="270" />
    <line x1="600" y1="340" x2="600" y2="390" />
    <line x1="600" y1="460" x2="600" y2="510" />
    <line x1="600" y1="580" x2="600" y2="630" />
    <line x1="600" y1="700" x2="600" y2="750" />
    <line x1="600" y1="820" x2="600" y2="870" />
    <line x1="600" y1="940" x2="600" y2="990" />
  </g>
</svg>
