<svg width="980" height="720" viewBox="0 0 980 720" xmlns="http://www.w3.org/2000/svg">
  <defs>
    <marker id="arrow-dark" markerWidth="8" markerHeight="8" refX="6" refY="3" orient="auto">
      <path d="M0,0 L6,3 L0,6" fill="none" stroke="#64748B" stroke-width="2" />
    </marker>
  </defs>

  <g font-family="Space Grotesk, Segoe UI, Helvetica, Arial, sans-serif">
    <g fill="#0B1220" stroke="#334155" stroke-width="2">
      <rect x="60" y="40" width="260" height="110" rx="16" />
      <rect x="60" y="185" width="260" height="150" rx="16" />
      <rect x="60" y="365" width="260" height="150" rx="16" />

      <rect x="360" y="80" width="260" height="210" rx="16" />
      <rect x="360" y="330" width="260" height="150" rx="16" />
      <rect x="360" y="520" width="260" height="110" rx="16" />

      <rect x="660" y="120" width="260" height="190" rx="16" />
      <rect x="660" y="350" width="260" height="140" rx="16" />
      <rect x="660" y="530" width="260" height="110" rx="16" />
    </g>

    <g font-size="15" font-weight="600" fill="#E2E8F0">
      <text x="72" y="68">Client Interfaces</text>
      <text x="72" y="213">SQL Frontend</text>
      <text x="72" y="393">Planner</text>

      <text x="372" y="108">Execution</text>
      <text x="372" y="358">Transaction</text>
      <text x="372" y="548">Catalog</text>

      <text x="672" y="148">Storage</text>
      <text x="672" y="378">Buffer Pool</text>
      <text x="672" y="558">Disk Manager</text>
    </g>

    <g font-size="12" fill="#F8FAFC" stroke="#2B2B2B" stroke-width="1">
      <rect x="72" y="90" width="70" height="26" rx="8" fill="#111827" />
      <rect x="150" y="90" width="70" height="26" rx="8" fill="#111827" />
      <rect x="228" y="90" width="70" height="26" rx="8" fill="#111827" />
      <text x="107" y="107" text-anchor="middle">CLI</text>
      <text x="185" y="107" text-anchor="middle">C++ API</text>
      <text x="263" y="107" text-anchor="middle">SQL Text</text>

      <rect x="72" y="230" width="100" height="26" rx="8" fill="#111827" />
      <rect x="184" y="230" width="100" height="26" rx="8" fill="#111827" />
      <rect x="72" y="262" width="100" height="26" rx="8" fill="#111827" />
      <rect x="184" y="262" width="100" height="26" rx="8" fill="#111827" />
      <text x="122" y="247" text-anchor="middle">Lexer</text>
      <text x="234" y="247" text-anchor="middle">Parser</text>
      <text x="122" y="279" text-anchor="middle">AST</text>
      <text x="234" y="279" text-anchor="middle">Binder</text>

      <rect x="72" y="410" width="100" height="26" rx="8" fill="#111827" />
      <rect x="184" y="410" width="100" height="26" rx="8" fill="#111827" />
      <rect x="72" y="442" width="100" height="26" rx="8" fill="#111827" />
      <rect x="184" y="442" width="100" height="26" rx="8" fill="#111827" />
      <text x="122" y="427" text-anchor="middle">Statistics</text>
      <text x="234" y="427" text-anchor="middle">Cost Model</text>
      <text x="122" y="459" text-anchor="middle">Index Select</text>
      <text x="234" y="459" text-anchor="middle">Plan Nodes</text>

      <rect x="372" y="130" width="100" height="24" rx="8" fill="#111827" />
      <rect x="484" y="130" width="100" height="24" rx="8" fill="#111827" />
      <rect x="372" y="160" width="100" height="24" rx="8" fill="#111827" />
      <rect x="484" y="160" width="100" height="24" rx="8" fill="#111827" />
      <rect x="372" y="190" width="100" height="24" rx="8" fill="#111827" />
      <rect x="484" y="190" width="100" height="24" rx="8" fill="#111827" />
      <rect x="372" y="220" width="100" height="24" rx="8" fill="#111827" />
      <rect x="484" y="220" width="100" height="24" rx="8" fill="#111827" />
      <text x="422" y="146" text-anchor="middle">Seq Scan</text>
      <text x="534" y="146" text-anchor="middle">Index Scan</text>
      <text x="422" y="176" text-anchor="middle">Hash Join</text>
      <text x="534" y="176" text-anchor="middle">Nested Loop</text>
      <text x="422" y="206" text-anchor="middle">Sort</text>
      <text x="534" y="206" text-anchor="middle">Aggregate</text>
      <text x="422" y="236" text-anchor="middle">Filter</text>
      <text x="534" y="236" text-anchor="middle">DML</text>

      <rect x="372" y="376" width="100" height="26" rx="8" fill="#111827" />
      <rect x="484" y="376" width="100" height="26" rx="8" fill="#111827" />
      <rect x="372" y="408" width="100" height="26" rx="8" fill="#111827" />
      <rect x="484" y="408" width="100" height="26" rx="8" fill="#111827" />
      <text x="422" y="393" text-anchor="middle">MVCC</text>
      <text x="534" y="393" text-anchor="middle">Lock Mgr</text>
      <text x="422" y="425" text-anchor="middle">WAL</text>
      <text x="534" y="425" text-anchor="middle">Recovery</text>

      <rect x="372" y="566" width="70" height="26" rx="8" fill="#111827" />
      <rect x="450" y="566" width="70" height="26" rx="8" fill="#111827" />
      <rect x="528" y="566" width="70" height="26" rx="8" fill="#111827" />
      <text x="407" y="583" text-anchor="middle">Schemas</text>
      <text x="485" y="583" text-anchor="middle">Tables</text>
      <text x="563" y="583" text-anchor="middle">Indexes</text>

      <rect x="672" y="168" width="100" height="26" rx="8" fill="#111827" />
      <rect x="784" y="168" width="100" height="26" rx="8" fill="#111827" />
      <rect x="672" y="200" width="100" height="26" rx="8" fill="#111827" />
      <rect x="784" y="200" width="100" height="26" rx="8" fill="#111827" />
      <rect x="672" y="232" width="100" height="26" rx="8" fill="#111827" />
      <rect x="784" y="232" width="100" height="26" rx="8" fill="#111827" />
      <text x="722" y="185" text-anchor="middle">Table Heap</text>
      <text x="834" y="185" text-anchor="middle">Slotted</text>
      <text x="722" y="217" text-anchor="middle">Tuple</text>
      <text x="834" y="217" text-anchor="middle">B+ Tree</text>
      <text x="722" y="249" text-anchor="middle">Hash Index</text>
      <text x="834" y="249" text-anchor="middle">Compress</text>

      <rect x="672" y="396" width="100" height="26" rx="8" fill="#111827" />
      <rect x="784" y="396" width="100" height="26" rx="8" fill="#111827" />
      <rect x="672" y="428" width="100" height="26" rx="8" fill="#111827" />
      <rect x="784" y="428" width="100" height="26" rx="8" fill="#111827" />
      <text x="722" y="413" text-anchor="middle">Page Table</text>
      <text x="834" y="413" text-anchor="middle">LRU</text>
      <text x="722" y="445" text-anchor="middle">Pin</text>
      <text x="834" y="445" text-anchor="middle">Dirty</text>

      <rect x="672" y="576" width="100" height="26" rx="8" fill="#111827" />
      <rect x="784" y="576" width="100" height="26" rx="8" fill="#111827" />
      <text x="722" y="593" text-anchor="middle">Page IO</text>
      <text x="834" y="593" text-anchor="middle">WAL IO</text>
    </g>

    <g stroke="#64748B" stroke-width="2" stroke-linecap="round" marker-end="url(#arrow-dark)">
      <line x1="190" y1="150" x2="190" y2="185" />
      <line x1="190" y1="335" x2="190" y2="365" />
      <line x1="320" y1="440" x2="360" y2="440" />
      <line x1="490" y1="290" x2="490" y2="330" />
      <line x1="790" y1="310" x2="790" y2="350" />
      <line x1="790" y1="490" x2="790" y2="530" />
      <path d="M620 185 L640 185 L640 215 L660 215" fill="none" />
      <path d="M620 405 L640 405 L640 420 L660 420" fill="none" />
    </g>
  </g>
</svg>
